<?xml version="1.0" encoding="utf-8"?>
<svg xmlns="http://www.w3.org/2000/svg" xmlns:xlink="http://www.w3.org/1999/xlink" width="600" height="400" viewBox="0 0 2400 1600">
<defs>
  <clipPath id="clip230">
    <rect x="0" y="0" width="2400" height="1600"/>
  </clipPath>
</defs>
<path clip-path="url(#clip230)" d="M0 1600 L2400 1600 L2400 0 L0 0  Z" fill="#ffffff" fill-rule="evenodd" fill-opacity="1"/>
<defs>
  <clipPath id="clip231">
    <rect x="480" y="0" width="1681" height="1600"/>
  </clipPath>
</defs>
<path clip-path="url(#clip230)" d="M447.244 1552.76 L1952.76 1552.76 L1952.76 47.2441 L447.244 47.2441  Z" fill="#ffffff" fill-rule="evenodd" fill-opacity="1"/>
<defs>
  <clipPath id="clip232">
    <rect x="447" y="47" width="1507" height="1507"/>
  </clipPath>
</defs>
<polyline clip-path="url(#clip232)" style="stroke:#000000; stroke-linecap:round; stroke-linejoin:round; stroke-width:4; stroke-opacity:1; fill:none" points="662.317,705.168 905.039,642.299 "/>
<polyline clip-path="url(#clip232)" style="stroke:#000000; stroke-linecap:round; stroke-linejoin:round; stroke-width:4; stroke-opacity:1; fill:none" points="865.676,633.9 905.039,642.299 874.703,668.75 "/>
<polyline clip-path="url(#clip232)" style="stroke:#000000; stroke-linecap:round; stroke-linejoin:round; stroke-width:4; stroke-opacity:1; fill:none" points="905.039,642.299 662.317,705.168 "/>
<polyline clip-path="url(#clip232)" style="stroke:#000000; stroke-linecap:round; stroke-linejoin:round; stroke-width:4; stroke-opacity:1; fill:none" points="946.973,262.317 934.05,543.983 "/>
<polyline clip-path="url(#clip232)" style="stroke:#000000; stroke-linecap:round; stroke-linejoin:round; stroke-width:4; stroke-opacity:1; fill:none" points="953.681,508.845 934.05,543.983 917.718,507.195 "/>
<polyline clip-path="url(#clip232)" style="stroke:#000000; stroke-linecap:round; stroke-linejoin:round; stroke-width:4; stroke-opacity:1; fill:none" points="934.05,543.983 946.973,262.317 "/>
<polyline clip-path="url(#clip232)" style="stroke:#000000; stroke-linecap:round; stroke-linejoin:round; stroke-width:4; stroke-opacity:1; fill:none" points="1199.98,800.047 1386.89,975.435 "/>
<polyline clip-path="url(#clip232)" style="stroke:#000000; stroke-linecap:round; stroke-linejoin:round; stroke-width:4; stroke-opacity:1; fill:none" points="1372.96,937.676 1386.89,975.435 1348.32,963.928 "/>
<polyline clip-path="url(#clip232)" style="stroke:#000000; stroke-linecap:round; stroke-linejoin:round; stroke-width:4; stroke-opacity:1; fill:none" points="1386.89,975.435 1199.98,800.047 "/>
<polyline clip-path="url(#clip232)" style="stroke:#000000; stroke-linecap:round; stroke-linejoin:round; stroke-width:4; stroke-opacity:1; fill:none" points="1737.68,894.762 1508.55,996.582 "/>
<polyline clip-path="url(#clip232)" style="stroke:#000000; stroke-linecap:round; stroke-linejoin:round; stroke-width:4; stroke-opacity:1; fill:none" points="1548.76,998.412 1508.55,996.582 1534.14,965.514 "/>
<polyline clip-path="url(#clip232)" style="stroke:#000000; stroke-linecap:round; stroke-linejoin:round; stroke-width:4; stroke-opacity:1; fill:none" points="1508.55,996.582 1737.68,894.762 "/>
<polyline clip-path="url(#clip232)" style="stroke:#000000; stroke-linecap:round; stroke-linejoin:round; stroke-width:4; stroke-opacity:1; fill:none" points="954.148,603.351 1166.32,747.171 "/>
<polyline clip-path="url(#clip232)" style="stroke:#000000; stroke-linecap:round; stroke-linejoin:round; stroke-width:4; stroke-opacity:1; fill:none" points="1146.62,712.073 1166.32,747.171 1126.42,741.872 "/>
<polyline clip-path="url(#clip232)" style="stroke:#000000; stroke-linecap:round; stroke-linejoin:round; stroke-width:4; stroke-opacity:1; fill:none" points="1166.32,747.171 954.148,603.351 "/>
<polyline clip-path="url(#clip232)" style="stroke:#000000; stroke-linecap:round; stroke-linejoin:round; stroke-width:4; stroke-opacity:1; fill:none" points="1445.87,996.652 1470.69,1277.52 "/>
<polyline clip-path="url(#clip232)" style="stroke:#000000; stroke-linecap:round; stroke-linejoin:round; stroke-width:4; stroke-opacity:1; fill:none" points="1485.45,1240.07 1470.69,1277.52 1449.59,1243.24 "/>
<polyline clip-path="url(#clip232)" style="stroke:#000000; stroke-linecap:round; stroke-linejoin:round; stroke-width:4; stroke-opacity:1; fill:none" points="1470.69,1277.52 1445.87,996.652 "/>
<path clip-path="url(#clip232)" d="M724.996 705.168 L724.798 700.188 L724.204 695.24 L723.22 690.354 L721.85 685.562 L720.105 680.894 L717.993 676.38 L715.53 672.047 L712.731 667.924 L709.612 664.037 L706.195 660.409 L702.5 657.064 L698.551 654.024 L694.373 651.307 L689.993 648.93 L685.437 646.909 L680.735 645.257 L675.917 643.983 L671.013 643.096 L666.054 642.601 L661.071 642.502 L656.096 642.799 L651.161 643.49 L646.296 644.572 L641.532 646.036 L636.9 647.874 L632.428 650.075 L628.145 652.624 L624.079 655.505 L620.254 658.7 L616.695 662.189 L613.424 665.949 L610.463 669.958 L607.83 674.189 L605.541 678.616 L603.61 683.211 L602.052 687.945 L600.874 692.787 L600.084 697.708 L599.688 702.676 L599.688 707.66 L600.084 712.628 L600.874 717.549 L602.052 722.391 L603.61 727.125 L605.541 731.72 L607.83 736.147 L610.463 740.378 L613.424 744.386 L616.695 748.147 L620.254 751.636 L624.079 754.831 L628.145 757.712 L632.428 760.261 L636.9 762.461 L641.532 764.3 L646.296 765.764 L651.161 766.845 L656.096 767.537 L661.071 767.834 L666.054 767.735 L671.013 767.24 L675.917 766.353 L680.735 765.079 L685.437 763.426 L689.993 761.405 L694.373 759.029 L698.551 756.312 L702.5 753.271 L706.195 749.927 L709.612 746.299 L712.731 742.411 L715.53 738.288 L717.993 733.956 L720.105 729.441 L721.85 724.773 L723.22 719.982 L724.204 715.096 L724.798 710.148 L724.996 705.168 L724.996 705.168  Z" fill="#d3d3d3" fill-rule="evenodd" fill-opacity="1"/>
<polyline clip-path="url(#clip232)" style="stroke:#000000; stroke-linecap:round; stroke-linejoin:round; stroke-width:4; stroke-opacity:1; fill:none" points="724.996,705.168 724.798,700.188 724.204,695.24 723.22,690.354 721.85,685.562 720.105,680.894 717.993,676.38 715.53,672.047 712.731,667.924 709.612,664.037 706.195,660.409 702.5,657.064 698.551,654.024 694.373,651.307 689.993,648.93 685.437,646.909 680.735,645.257 675.917,643.983 671.013,643.096 666.054,642.601 661.071,642.502 656.096,642.799 651.161,643.49 646.296,644.572 641.532,646.036 636.9,647.874 632.428,650.075 628.145,652.624 624.079,655.505 620.254,658.7 616.695,662.189 613.424,665.949 610.463,669.958 607.83,674.189 605.541,678.616 603.61,683.211 602.052,687.945 600.874,692.787 600.084,697.708 599.688,702.676 599.688,707.66 600.084,712.628 600.874,717.549 602.052,722.391 603.61,727.125 605.541,731.72 607.83,736.147 610.463,740.378 613.424,744.386 616.695,748.147 620.254,751.636 624.079,754.831 628.145,757.712 632.428,760.261 636.9,762.461 641.532,764.3 646.296,765.764 651.161,766.845 656.096,767.537 661.071,767.834 666.054,767.735 671.013,767.24 675.917,766.353 680.735,765.079 685.437,763.426 689.993,761.405 694.373,759.029 698.551,756.312 702.5,753.271 706.195,749.927 709.612,746.299 712.731,742.411 715.53,738.288 717.993,733.956 720.105,729.441 721.85,724.773 723.22,719.982 724.204,715.096 724.798,710.148 724.996,705.168 "/>
<path clip-path="url(#clip232)" d="M1009.65 262.317 L1009.45 257.337 L1008.86 252.389 L1007.88 247.504 L1006.51 242.712 L1004.76 238.044 L1002.65 233.529 L1000.19 229.197 L997.386 225.074 L994.268 221.186 L990.85 217.558 L987.155 214.214 L983.207 211.173 L979.029 208.456 L974.648 206.08 L970.092 204.059 L965.391 202.406 L960.573 201.132 L955.668 200.245 L950.709 199.75 L945.726 199.651 L940.752 199.948 L935.816 200.64 L930.951 201.721 L926.187 203.186 L921.555 205.024 L917.083 207.224 L912.801 209.773 L908.734 212.654 L904.909 215.849 L901.35 219.338 L898.08 223.099 L895.119 227.107 L892.485 231.338 L890.196 235.765 L888.266 240.36 L886.707 245.094 L885.529 249.936 L884.74 254.857 L884.344 259.825 L884.344 264.809 L884.74 269.777 L885.529 274.698 L886.707 279.54 L888.266 284.274 L890.196 288.869 L892.485 293.296 L895.119 297.527 L898.08 301.536 L901.35 305.296 L904.909 308.785 L908.734 311.98 L912.801 314.861 L917.083 317.41 L921.555 319.611 L926.187 321.449 L930.951 322.913 L935.816 323.995 L940.752 324.686 L945.726 324.983 L950.709 324.884 L955.668 324.39 L960.573 323.502 L965.391 322.228 L970.092 320.576 L974.648 318.555 L979.029 316.178 L983.207 313.461 L987.155 310.421 L990.85 307.076 L994.268 303.448 L997.386 299.561 L1000.19 295.438 L1002.65 291.105 L1004.76 286.591 L1006.51 281.923 L1007.88 277.131 L1008.86 272.245 L1009.45 267.297 L1009.65 262.317 L1009.65 262.317  Z" fill="#d3d3d3" fill-rule="evenodd" fill-opacity="1"/>
<polyline clip-path="url(#clip232)" style="stroke:#000000; stroke-linecap:round; stroke-linejoin:round; stroke-width:4; stroke-opacity:1; fill:none" points="1009.65,262.317 1009.45,257.337 1008.86,252.389 1007.88,247.504 1006.51,242.712 1004.76,238.044 1002.65,233.529 1000.19,229.197 997.386,225.074 994.268,221.186 990.85,217.558 987.155,214.214 983.207,211.173 979.029,208.456 974.648,206.08 970.092,204.059 965.391,202.406 960.573,201.132 955.668,200.245 950.709,199.75 945.726,199.651 940.752,199.948 935.816,200.64 930.951,201.721 926.187,203.186 921.555,205.024 917.083,207.224 912.801,209.773 908.734,212.654 904.909,215.849 901.35,219.338 898.08,223.099 895.119,227.107 892.485,231.338 890.196,235.765 888.266,240.36 886.707,245.094 885.529,249.936 884.74,254.857 884.344,259.825 884.344,264.809 884.74,269.777 885.529,274.698 886.707,279.54 888.266,284.274 890.196,288.869 892.485,293.296 895.119,297.527 898.08,301.536 901.35,305.296 904.909,308.785 908.734,311.98 912.801,314.861 917.083,317.41 921.555,319.611 926.187,321.449 930.951,322.913 935.816,323.995 940.752,324.686 945.726,324.983 950.709,324.884 955.668,324.39 960.573,323.502 965.391,322.228 970.092,320.576 974.648,318.555 979.029,316.178 983.207,313.461 987.155,310.421 990.85,307.076 994.268,303.448 997.386,299.561 1000.19,295.438 1002.65,291.105 1004.76,286.591 1006.51,281.923 1007.88,277.131 1008.86,272.245 1009.45,267.297 1009.65,262.317 "/>
<path clip-path="url(#clip232)" d="M1262.66 800.047 L1262.46 795.067 L1261.87 790.119 L1260.88 785.233 L1259.51 780.442 L1257.77 775.774 L1255.66 771.259 L1253.19 766.927 L1250.39 762.804 L1247.27 758.916 L1243.86 755.288 L1240.16 751.944 L1236.21 748.903 L1232.04 746.186 L1227.65 743.81 L1223.1 741.789 L1218.4 740.136 L1213.58 738.862 L1208.68 737.975 L1203.72 737.48 L1198.73 737.381 L1193.76 737.678 L1188.82 738.37 L1183.96 739.451 L1179.19 740.915 L1174.56 742.754 L1170.09 744.954 L1165.81 747.503 L1161.74 750.384 L1157.92 753.579 L1154.36 757.068 L1151.09 760.829 L1148.13 764.837 L1145.49 769.068 L1143.2 773.495 L1141.27 778.09 L1139.71 782.824 L1138.54 787.666 L1137.75 792.587 L1137.35 797.555 L1137.35 802.539 L1137.75 807.507 L1138.54 812.428 L1139.71 817.27 L1141.27 822.004 L1143.2 826.599 L1145.49 831.026 L1148.13 835.257 L1151.09 839.266 L1154.36 843.026 L1157.92 846.515 L1161.74 849.71 L1165.81 852.591 L1170.09 855.14 L1174.56 857.34 L1179.19 859.179 L1183.96 860.643 L1188.82 861.725 L1193.76 862.416 L1198.73 862.713 L1203.72 862.614 L1208.68 862.119 L1213.58 861.232 L1218.4 859.958 L1223.1 858.306 L1227.65 856.285 L1232.04 853.908 L1236.21 851.191 L1240.16 848.15 L1243.86 844.806 L1247.27 841.178 L1250.39 837.291 L1253.19 833.168 L1255.66 828.835 L1257.77 824.321 L1259.51 819.653 L1260.88 814.861 L1261.87 809.975 L1262.46 805.027 L1262.66 800.047 L1262.66 800.047  Z" fill="#d3d3d3" fill-rule="evenodd" fill-opacity="1"/>
<polyline clip-path="url(#clip232)" style="stroke:#000000; stroke-linecap:round; stroke-linejoin:round; stroke-width:4; stroke-opacity:1; fill:none" points="1262.66,800.047 1262.46,795.067 1261.87,790.119 1260.88,785.233 1259.51,780.442 1257.77,775.774 1255.66,771.259 1253.19,766.927 1250.39,762.804 1247.27,758.916 1243.86,755.288 1240.16,751.944 1236.21,748.903 1232.04,746.186 1227.65,743.81 1223.1,741.789 1218.4,740.136 1213.58,738.862 1208.68,737.975 1203.72,737.48 1198.73,737.381 1193.76,737.678 1188.82,738.37 1183.96,739.451 1179.19,740.915 1174.56,742.754 1170.09,744.954 1165.81,747.503 1161.74,750.384 1157.92,753.579 1154.36,757.068 1151.09,760.829 1148.13,764.837 1145.49,769.068 1143.2,773.495 1141.27,778.09 1139.71,782.824 1138.54,787.666 1137.75,792.587 1137.35,797.555 1137.35,802.539 1137.75,807.507 1138.54,812.428 1139.71,817.27 1141.27,822.004 1143.2,826.599 1145.49,831.026 1148.13,835.257 1151.09,839.266 1154.36,843.026 1157.92,846.515 1161.74,849.71 1165.81,852.591 1170.09,855.14 1174.56,857.34 1179.19,859.179 1183.96,860.643 1188.82,861.725 1193.76,862.416 1198.73,862.713 1203.72,862.614 1208.68,862.119 1213.58,861.232 1218.4,859.958 1223.1,858.306 1227.65,856.285 1232.04,853.908 1236.21,851.191 1240.16,848.15 1243.86,844.806 1247.27,841.178 1250.39,837.291 1253.19,833.168 1255.66,828.835 1257.77,824.321 1259.51,819.653 1260.88,814.861 1261.87,809.975 1262.46,805.027 1262.66,800.047 "/>
<path clip-path="url(#clip232)" d="M1800.36 894.762 L1800.16 889.782 L1799.57 884.834 L1798.59 879.948 L1797.22 875.156 L1795.47 870.488 L1793.36 865.974 L1790.9 861.641 L1788.1 857.518 L1784.98 853.631 L1781.56 850.003 L1777.87 846.659 L1773.92 843.618 L1769.74 840.901 L1765.36 838.524 L1760.8 836.503 L1756.1 834.851 L1751.28 833.577 L1746.38 832.69 L1741.42 832.195 L1736.44 832.096 L1731.46 832.393 L1726.53 833.084 L1721.66 834.166 L1716.9 835.63 L1712.27 837.469 L1707.79 839.669 L1703.51 842.218 L1699.44 845.099 L1695.62 848.294 L1692.06 851.783 L1688.79 855.543 L1685.83 859.552 L1683.2 863.783 L1680.91 868.21 L1678.98 872.805 L1677.42 877.539 L1676.24 882.381 L1675.45 887.302 L1675.05 892.27 L1675.05 897.254 L1675.45 902.222 L1676.24 907.143 L1677.42 911.985 L1678.98 916.719 L1680.91 921.314 L1683.2 925.741 L1685.83 929.972 L1688.79 933.98 L1692.06 937.741 L1695.62 941.23 L1699.44 944.425 L1703.51 947.306 L1707.79 949.855 L1712.27 952.055 L1716.9 953.894 L1721.66 955.358 L1726.53 956.439 L1731.46 957.131 L1736.44 957.428 L1741.42 957.329 L1746.38 956.834 L1751.28 955.947 L1756.1 954.673 L1760.8 953.02 L1765.36 950.999 L1769.74 948.623 L1773.92 945.906 L1777.87 942.865 L1781.56 939.521 L1784.98 935.893 L1788.1 932.006 L1790.9 927.882 L1793.36 923.55 L1795.47 919.035 L1797.22 914.368 L1798.59 909.576 L1799.57 904.69 L1800.16 899.742 L1800.36 894.762 L1800.36 894.762  Z" fill="#d3d3d3" fill-rule="evenodd" fill-opacity="1"/>
<polyline clip-path="url(#clip232)" style="stroke:#000000; stroke-linecap:round; stroke-linejoin:round; stroke-width:4; stroke-opacity:1; fill:none" points="1800.36,894.762 1800.16,889.782 1799.57,884.834 1798.59,879.948 1797.22,875.156 1795.47,870.488 1793.36,865.974 1790.9,861.641 1788.1,857.518 1784.98,853.631 1781.56,850.003 1777.87,846.659 1773.92,843.618 1769.74,840.901 1765.36,838.524 1760.8,836.503 1756.1,834.851 1751.28,833.577 1746.38,832.69 1741.42,832.195 1736.44,832.096 1731.46,832.393 1726.53,833.084 1721.66,834.166 1716.9,835.63 1712.27,837.469 1707.79,839.669 1703.51,842.218 1699.44,845.099 1695.62,848.294 1692.06,851.783 1688.79,855.543 1685.83,859.552 1683.2,863.783 1680.91,868.21 1678.98,872.805 1677.42,877.539 1676.24,882.381 1675.45,887.302 1675.05,892.27 1675.05,897.254 1675.45,902.222 1676.24,907.143 1677.42,911.985 1678.98,916.719 1680.91,921.314 1683.2,925.741 1685.83,929.972 1688.79,933.98 1692.06,937.741 1695.62,941.23 1699.44,944.425 1703.51,947.306 1707.79,949.855 1712.27,952.055 1716.9,953.894 1721.66,955.358 1726.53,956.439 1731.46,957.131 1736.44,957.428 1741.42,957.329 1746.38,956.834 1751.28,955.947 1756.1,954.673 1760.8,953.02 1765.36,950.999 1769.74,948.623 1773.92,945.906 1777.87,942.865 1781.56,939.521 1784.98,935.893 1788.1,932.006 1790.9,927.882 1793.36,923.55 1795.47,919.035 1797.22,914.368 1798.59,909.576 1799.57,904.69 1800.16,899.742 1800.36,894.762 "/>
<path clip-path="url(#clip232)" d="M1515.79 1337.68 L1515.59 1332.7 L1515 1327.75 L1514.02 1322.87 L1512.65 1318.08 L1510.9 1313.41 L1508.79 1308.89 L1506.33 1304.56 L1503.53 1300.44 L1500.41 1296.55 L1496.99 1292.92 L1493.3 1289.58 L1489.35 1286.54 L1485.17 1283.82 L1480.79 1281.45 L1476.23 1279.42 L1471.53 1277.77 L1466.71 1276.5 L1461.81 1275.61 L1456.85 1275.12 L1451.87 1275.02 L1446.89 1275.31 L1441.96 1276.01 L1437.09 1277.09 L1432.33 1278.55 L1427.7 1280.39 L1423.23 1282.59 L1418.94 1285.14 L1414.88 1288.02 L1411.05 1291.21 L1407.49 1294.7 L1404.22 1298.46 L1401.26 1302.47 L1398.63 1306.7 L1396.34 1311.13 L1394.41 1315.73 L1392.85 1320.46 L1391.67 1325.3 L1390.88 1330.22 L1390.49 1335.19 L1390.49 1340.17 L1390.88 1345.14 L1391.67 1350.06 L1392.85 1354.91 L1394.41 1359.64 L1396.34 1364.23 L1398.63 1368.66 L1401.26 1372.89 L1404.22 1376.9 L1407.49 1380.66 L1411.05 1384.15 L1414.88 1387.35 L1418.94 1390.23 L1423.23 1392.78 L1427.7 1394.98 L1432.33 1396.81 L1437.09 1398.28 L1441.96 1399.36 L1446.89 1400.05 L1451.87 1400.35 L1456.85 1400.25 L1461.81 1399.76 L1466.71 1398.87 L1471.53 1397.59 L1476.23 1395.94 L1480.79 1393.92 L1485.17 1391.54 L1489.35 1388.83 L1493.3 1385.79 L1496.99 1382.44 L1500.41 1378.81 L1503.53 1374.93 L1506.33 1370.8 L1508.79 1366.47 L1510.9 1361.96 L1512.65 1357.29 L1514.02 1352.5 L1515 1347.61 L1515.59 1342.66 L1515.79 1337.68 L1515.79 1337.68  Z" fill="#d3d3d3" fill-rule="evenodd" fill-opacity="1"/>
<polyline clip-path="url(#clip232)" style="stroke:#000000; stroke-linecap:round; stroke-linejoin:round; stroke-width:4; stroke-opacity:1; fill:none" points="1515.79,1337.68 1515.59,1332.7 1515,1327.75 1514.02,1322.87 1512.65,1318.08 1510.9,1313.41 1508.79,1308.89 1506.33,1304.56 1503.53,1300.44 1500.41,1296.55 1496.99,1292.92 1493.3,1289.58 1489.35,1286.54 1485.17,1283.82 1480.79,1281.45 1476.23,1279.42 1471.53,1277.77 1466.71,1276.5 1461.81,1275.61 1456.85,1275.12 1451.87,1275.02 1446.89,1275.31 1441.96,1276.01 1437.09,1277.09 1432.33,1278.55 1427.7,1280.39 1423.23,1282.59 1418.94,1285.14 1414.88,1288.02 1411.05,1291.21 1407.49,1294.7 1404.22,1298.46 1401.26,1302.47 1398.63,1306.7 1396.34,1311.13 1394.41,1315.73 1392.85,1320.46 1391.67,1325.3 1390.88,1330.22 1390.49,1335.19 1390.49,1340.17 1390.88,1345.14 1391.67,1350.06 1392.85,1354.91 1394.41,1359.64 1396.34,1364.23 1398.63,1368.66 1401.26,1372.89 1404.22,1376.9 1407.49,1380.66 1411.05,1384.15 1414.88,1387.35 1418.94,1390.23 1423.23,1392.78 1427.7,1394.98 1432.33,1396.81 1437.09,1398.28 1441.96,1399.36 1446.89,1400.05 1451.87,1400.35 1456.85,1400.25 1461.81,1399.76 1466.71,1398.87 1471.53,1397.59 1476.23,1395.94 1480.79,1393.92 1485.17,1391.54 1489.35,1388.83 1493.3,1385.79 1496.99,1382.44 1500.41,1378.81 1503.53,1374.93 1506.33,1370.8 1508.79,1366.47 1510.9,1361.96 1512.65,1357.29 1514.02,1352.5 1515,1347.61 1515.59,1342.66 1515.79,1337.68 "/>
<path clip-path="url(#clip232)" d="M1016.83 603.351 L1016.63 598.371 L1016.04 593.423 L1015.05 588.538 L1013.68 583.746 L1011.94 579.078 L1009.82 574.563 L1007.36 570.231 L1004.56 566.108 L1001.44 562.22 L998.026 558.592 L994.331 555.248 L990.382 552.207 L986.204 549.49 L981.824 547.114 L977.268 545.093 L972.566 543.44 L967.748 542.166 L962.844 541.279 L957.885 540.784 L952.902 540.685 L947.927 540.982 L942.992 541.674 L938.127 542.755 L933.363 544.22 L928.731 546.058 L924.259 548.258 L919.976 550.807 L915.91 553.688 L912.085 556.883 L908.526 560.372 L905.256 564.133 L902.294 568.141 L899.661 572.372 L897.372 576.799 L895.442 581.394 L893.883 586.128 L892.705 590.971 L891.915 595.891 L891.519 600.859 L891.519 605.843 L891.915 610.811 L892.705 615.732 L893.883 620.574 L895.442 625.308 L897.372 629.903 L899.661 634.33 L902.294 638.561 L905.256 642.57 L908.526 646.33 L912.085 649.819 L915.91 653.014 L919.976 655.895 L924.259 658.444 L928.731 660.645 L933.363 662.483 L938.127 663.947 L942.992 665.029 L947.927 665.72 L952.902 666.017 L957.885 665.918 L962.844 665.424 L967.748 664.536 L972.566 663.263 L977.268 661.61 L981.824 659.589 L986.204 657.212 L990.382 654.495 L994.331 651.455 L998.026 648.11 L1001.44 644.482 L1004.56 640.595 L1007.36 636.472 L1009.82 632.139 L1011.94 627.625 L1013.68 622.957 L1015.05 618.165 L1016.04 613.279 L1016.63 608.331 L1016.83 603.351 L1016.83 603.351  Z" fill="#d3d3d3" fill-rule="evenodd" fill-opacity="1"/>
<polyline clip-path="url(#clip232)" style="stroke:#000000; stroke-linecap:round; stroke-linejoin:round; stroke-width:4; stroke-opacity:1; fill:none" points="1016.83,603.351 1016.63,598.371 1016.04,593.423 1015.05,588.538 1013.68,583.746 1011.94,579.078 1009.82,574.563 1007.36,570.231 1004.56,566.108 1001.44,562.22 998.026,558.592 994.331,555.248 990.382,552.207 986.204,549.49 981.824,547.114 977.268,545.093 972.566,543.44 967.748,542.166 962.844,541.279 957.885,540.784 952.902,540.685 947.927,540.982 942.992,541.674 938.127,542.755 933.363,544.22 928.731,546.058 924.259,548.258 919.976,550.807 915.91,553.688 912.085,556.883 908.526,560.372 905.256,564.133 902.294,568.141 899.661,572.372 897.372,576.799 895.442,581.394 893.883,586.128 892.705,590.971 891.915,595.891 891.519,600.859 891.519,605.843 891.915,610.811 892.705,615.732 893.883,620.574 895.442,625.308 897.372,629.903 899.661,634.33 902.294,638.561 905.256,642.57 908.526,646.33 912.085,649.819 915.91,653.014 919.976,655.895 924.259,658.444 928.731,660.645 933.363,662.483 938.127,663.947 942.992,665.029 947.927,665.72 952.902,666.017 957.885,665.918 962.844,665.424 967.748,664.536 972.566,663.263 977.268,661.61 981.824,659.589 986.204,657.212 990.382,654.495 994.331,651.455 998.026,648.11 1001.44,644.482 1004.56,640.595 1007.36,636.472 1009.82,632.139 1011.94,627.625 1013.68,622.957 1015.05,618.165 1016.04,613.279 1016.63,608.331 1016.83,603.351 "/>
<path clip-path="url(#clip232)" d="M1508.55 996.652 L1508.35 991.672 L1507.76 986.724 L1506.77 981.838 L1505.4 977.047 L1503.66 972.379 L1501.55 967.864 L1499.08 963.532 L1496.28 959.409 L1493.17 955.521 L1489.75 951.893 L1486.05 948.549 L1482.11 945.508 L1477.93 942.791 L1473.55 940.415 L1468.99 938.394 L1464.29 936.741 L1459.47 935.467 L1454.57 934.58 L1449.61 934.085 L1444.63 933.986 L1439.65 934.283 L1434.71 934.975 L1429.85 936.056 L1425.09 937.521 L1420.45 939.359 L1415.98 941.559 L1411.7 944.108 L1407.63 946.989 L1403.81 950.184 L1400.25 953.673 L1396.98 957.434 L1394.02 961.442 L1391.38 965.673 L1389.09 970.1 L1387.16 974.695 L1385.61 979.429 L1384.43 984.271 L1383.64 989.192 L1383.24 994.16 L1383.24 999.144 L1383.64 1004.11 L1384.43 1009.03 L1385.61 1013.88 L1387.16 1018.61 L1389.09 1023.2 L1391.38 1027.63 L1394.02 1031.86 L1396.98 1035.87 L1400.25 1039.63 L1403.81 1043.12 L1407.63 1046.32 L1411.7 1049.2 L1415.98 1051.74 L1420.45 1053.95 L1425.09 1055.78 L1429.85 1057.25 L1434.71 1058.33 L1439.65 1059.02 L1444.63 1059.32 L1449.61 1059.22 L1454.57 1058.72 L1459.47 1057.84 L1464.29 1056.56 L1468.99 1054.91 L1473.55 1052.89 L1477.93 1050.51 L1482.11 1047.8 L1486.05 1044.76 L1489.75 1041.41 L1493.17 1037.78 L1496.28 1033.9 L1499.08 1029.77 L1501.55 1025.44 L1503.66 1020.93 L1505.4 1016.26 L1506.77 1011.47 L1507.76 1006.58 L1508.35 1001.63 L1508.55 996.652 L1508.55 996.652  Z" fill="#d3d3d3" fill-rule="evenodd" fill-opacity="1"/>
<polyline clip-path="url(#clip232)" style="stroke:#000000; stroke-linecap:round; stroke-linejoin:round; stroke-width:4; stroke-opacity:1; fill:none" points="1508.55,996.652 1508.35,991.672 1507.76,986.724 1506.77,981.838 1505.4,977.047 1503.66,972.379 1501.55,967.864 1499.08,963.532 1496.28,959.409 1493.17,955.521 1489.75,951.893 1486.05,948.549 1482.11,945.508 1477.93,942.791 1473.55,940.415 1468.99,938.394 1464.29,936.741 1459.47,935.467 1454.57,934.58 1449.61,934.085 1444.63,933.986 1439.65,934.283 1434.71,934.975 1429.85,936.056 1425.09,937.521 1420.45,939.359 1415.98,941.559 1411.7,944.108 1407.63,946.989 1403.81,950.184 1400.25,953.673 1396.98,957.434 1394.02,961.442 1391.38,965.673 1389.09,970.1 1387.16,974.695 1385.61,979.429 1384.43,984.271 1383.64,989.192 1383.24,994.16 1383.24,999.144 1383.64,1004.11 1384.43,1009.03 1385.61,1013.88 1387.16,1018.61 1389.09,1023.2 1391.38,1027.63 1394.02,1031.86 1396.98,1035.87 1400.25,1039.63 1403.81,1043.12 1407.63,1046.32 1411.7,1049.2 1415.98,1051.74 1420.45,1053.95 1425.09,1055.78 1429.85,1057.25 1434.71,1058.33 1439.65,1059.02 1444.63,1059.32 1449.61,1059.22 1454.57,1058.72 1459.47,1057.84 1464.29,1056.56 1468.99,1054.91 1473.55,1052.89 1477.93,1050.51 1482.11,1047.8 1486.05,1044.76 1489.75,1041.41 1493.17,1037.78 1496.28,1033.9 1499.08,1029.77 1501.55,1025.44 1503.66,1020.93 1505.4,1016.26 1506.77,1011.47 1507.76,1006.58 1508.35,1001.63 1508.55,996.652 "/>
<circle clip-path="url(#clip232)" cx="662.317" cy="705.168" r="0.72" fill="#d3d3d3" fill-rule="evenodd" fill-opacity="1" stroke="#000000" stroke-opacity="1" stroke-width="3.2"/>
<circle clip-path="url(#clip232)" cx="946.973" cy="262.317" r="0.72" fill="#d3d3d3" fill-rule="evenodd" fill-opacity="1" stroke="#000000" stroke-opacity="1" stroke-width="3.2"/>
<circle clip-path="url(#clip232)" cx="1199.98" cy="800.047" r="0.72" fill="#d3d3d3" fill-rule="evenodd" fill-opacity="1" stroke="#000000" stroke-opacity="1" stroke-width="3.2"/>
<circle clip-path="url(#clip232)" cx="1737.68" cy="894.762" r="0.72" fill="#d3d3d3" fill-rule="evenodd" fill-opacity="1" stroke="#000000" stroke-opacity="1" stroke-width="3.2"/>
<circle clip-path="url(#clip232)" cx="1453.11" cy="1337.68" r="0.72" fill="#d3d3d3" fill-rule="evenodd" fill-opacity="1" stroke="#000000" stroke-opacity="1" stroke-width="3.2"/>
<circle clip-path="url(#clip232)" cx="954.148" cy="603.351" r="0.72" fill="#d3d3d3" fill-rule="evenodd" fill-opacity="1" stroke="#000000" stroke-opacity="1" stroke-width="3.2"/>
<circle clip-path="url(#clip232)" cx="1445.87" cy="996.652" r="0.72" fill="#d3d3d3" fill-rule="evenodd" fill-opacity="1" stroke="#000000" stroke-opacity="1" stroke-width="3.2"/>
<path clip-path="url(#clip230)" d="M671.287 710.593 Q671.287 704.719 668.857 701.392 Q666.455 698.035 662.23 698.035 Q658.006 698.035 655.575 701.392 Q653.174 704.719 653.174 710.593 Q653.174 716.467 655.575 719.823 Q658.006 723.151 662.23 723.151 Q666.455 723.151 668.857 719.823 Q671.287 716.467 671.287 710.593 M653.174 699.28 Q654.852 696.386 657.398 694.997 Q659.973 693.579 663.532 693.579 Q669.435 693.579 673.11 698.267 Q676.814 702.954 676.814 710.593 Q676.814 718.232 673.11 722.919 Q669.435 727.607 663.532 727.607 Q659.973 727.607 657.398 726.218 Q654.852 724.8 653.174 721.907 L653.174 726.768 L647.821 726.768 L647.821 681.745 L653.174 681.745 L653.174 699.28 Z" fill="#000000" fill-rule="nonzero" fill-opacity="1" /><path clip-path="url(#clip230)" d="M950.04 267.627 Q943.587 267.627 941.099 269.102 Q938.61 270.578 938.61 274.137 Q938.61 276.973 940.462 278.651 Q942.343 280.3 945.555 280.3 Q949.982 280.3 952.644 277.175 Q955.335 274.021 955.335 268.813 L955.335 267.627 L950.04 267.627 M960.659 265.428 L960.659 283.917 L955.335 283.917 L955.335 278.998 Q953.512 281.95 950.792 283.367 Q948.072 284.756 944.137 284.756 Q939.16 284.756 936.209 281.979 Q933.286 279.172 933.286 274.484 Q933.286 269.016 936.932 266.238 Q940.607 263.46 947.87 263.46 L955.335 263.46 L955.335 262.939 Q955.335 259.265 952.904 257.268 Q950.503 255.243 946.134 255.243 Q943.356 255.243 940.723 255.908 Q938.09 256.574 935.659 257.905 L935.659 252.986 Q938.582 251.857 941.33 251.307 Q944.079 250.729 946.683 250.729 Q953.715 250.729 957.187 254.375 Q960.659 258.02 960.659 265.428 Z" fill="#000000" fill-rule="nonzero" fill-opacity="1" /><path clip-path="url(#clip230)" d="M1212.8 790.484 L1212.8 795.461 Q1210.54 794.217 1208.25 793.609 Q1206 792.972 1203.68 792.972 Q1198.5 792.972 1195.64 796.271 Q1192.77 799.541 1192.77 805.472 Q1192.77 811.404 1195.64 814.703 Q1198.5 817.972 1203.68 817.972 Q1206 817.972 1208.25 817.365 Q1210.54 816.728 1212.8 815.484 L1212.8 820.403 Q1210.57 821.445 1208.17 821.965 Q1205.8 822.486 1203.1 822.486 Q1195.78 822.486 1191.47 817.886 Q1187.16 813.285 1187.16 805.472 Q1187.16 797.544 1191.5 793.001 Q1195.87 788.459 1203.45 788.459 Q1205.91 788.459 1208.25 788.979 Q1210.6 789.471 1212.8 790.484 Z" fill="#000000" fill-rule="nonzero" fill-opacity="1" /><path clip-path="url(#clip230)" d="M1746.84 888.874 L1746.84 871.339 L1752.16 871.339 L1752.16 916.362 L1746.84 916.362 L1746.84 911.501 Q1745.16 914.394 1742.59 915.812 Q1740.04 917.201 1736.45 917.201 Q1730.58 917.201 1726.88 912.514 Q1723.2 907.826 1723.2 900.187 Q1723.2 892.548 1726.88 887.861 Q1730.58 883.173 1736.45 883.173 Q1740.04 883.173 1742.59 884.591 Q1745.16 885.98 1746.84 888.874 M1728.7 900.187 Q1728.7 906.061 1731.1 909.418 Q1733.53 912.745 1737.76 912.745 Q1741.98 912.745 1744.41 909.418 Q1746.84 906.061 1746.84 900.187 Q1746.84 894.313 1744.41 890.986 Q1741.98 887.629 1737.76 887.629 Q1733.53 887.629 1731.1 890.986 Q1728.7 894.313 1728.7 900.187 Z" fill="#000000" fill-rule="nonzero" fill-opacity="1" /><path clip-path="url(#clip230)" d="M1468.13 1341.75 L1468.13 1344.35 L1443.65 1344.35 Q1444 1349.85 1446.95 1352.74 Q1449.93 1355.61 1455.23 1355.61 Q1458.29 1355.61 1461.16 1354.86 Q1464.05 1354.1 1466.89 1352.6 L1466.89 1357.63 Q1464.02 1358.85 1461.01 1359.49 Q1458 1360.12 1454.91 1360.12 Q1447.15 1360.12 1442.61 1355.61 Q1438.1 1351.09 1438.1 1343.4 Q1438.1 1335.44 1442.38 1330.78 Q1446.69 1326.09 1453.98 1326.09 Q1460.52 1326.09 1464.31 1330.32 Q1468.13 1334.51 1468.13 1341.75 M1462.81 1340.19 Q1462.75 1335.82 1460.35 1333.21 Q1457.98 1330.61 1454.04 1330.61 Q1449.58 1330.61 1446.89 1333.13 Q1444.23 1335.64 1443.83 1340.21 L1462.81 1340.19 Z" fill="#000000" fill-rule="nonzero" fill-opacity="1" /><path clip-path="url(#clip230)" d="M956.579 587.799 L956.579 603.915 L972.696 603.915 L972.696 608.834 L956.579 608.834 L956.579 624.951 L951.718 624.951 L951.718 608.834 L935.601 608.834 L935.601 603.915 L951.718 603.915 L951.718 587.799 L956.579 587.799 Z" fill="#000000" fill-rule="nonzero" fill-opacity="1" /><path clip-path="url(#clip230)" d="M1458.92 982.17 L1448.53 987.784 L1458.92 993.426 L1457.24 996.262 L1447.52 990.388 L1447.52 1001.3 L1444.22 1001.3 L1444.22 990.388 L1434.5 996.262 L1432.82 993.426 L1443.21 987.784 L1432.82 982.17 L1434.5 979.306 L1444.22 985.179 L1444.22 974.271 L1447.52 974.271 L1447.52 985.179 L1457.24 979.306 L1458.92 982.17 Z" fill="#000000" fill-rule="nonzero" fill-opacity="1" /></svg>
